<mxfile host="app.diagrams.net" modified="2024-05-26T15:41:26.273Z" agent="Mozilla/5.0 (Windows NT 10.0; Win64; x64) AppleWebKit/537.36 (KHTML, like Gecko) Chrome/124.0.0.0 Safari/537.36" etag="7dHo4kNofin2VYzfgUfE" version="24.4.8" type="device">
  <diagram id="C5RBs43oDa-KdzZeNtuy" name="Page-1">
    <mxGraphModel dx="521" dy="607" grid="1" gridSize="10" guides="1" tooltips="1" connect="1" arrows="1" fold="1" page="1" pageScale="1" pageWidth="827" pageHeight="1169" math="0" shadow="0">
      <root>
        <mxCell id="WIyWlLk6GJQsqaUBKTNV-0" />
        <mxCell id="WIyWlLk6GJQsqaUBKTNV-1" parent="WIyWlLk6GJQsqaUBKTNV-0" />
        <mxCell id="onmQwxyutbScnDZEIq1W-1" style="edgeStyle=none;curved=1;rounded=0;orthogonalLoop=1;jettySize=auto;html=1;fontSize=12;startSize=8;endSize=8;entryX=0.5;entryY=0;entryDx=0;entryDy=0;" edge="1" parent="WIyWlLk6GJQsqaUBKTNV-1" source="onmQwxyutbScnDZEIq1W-0" target="onmQwxyutbScnDZEIq1W-2">
          <mxGeometry relative="1" as="geometry">
            <mxPoint x="130" y="-20" as="targetPoint" />
          </mxGeometry>
        </mxCell>
        <mxCell id="onmQwxyutbScnDZEIq1W-0" value="START" style="shape=hexagon;perimeter=hexagonPerimeter2;whiteSpace=wrap;html=1;fixedSize=1;" vertex="1" parent="WIyWlLk6GJQsqaUBKTNV-1">
          <mxGeometry x="70" width="120" height="30" as="geometry" />
        </mxCell>
        <mxCell id="onmQwxyutbScnDZEIq1W-6" style="edgeStyle=none;curved=1;rounded=0;orthogonalLoop=1;jettySize=auto;html=1;fontSize=12;startSize=8;endSize=8;" edge="1" parent="WIyWlLk6GJQsqaUBKTNV-1" source="onmQwxyutbScnDZEIq1W-2" target="onmQwxyutbScnDZEIq1W-5">
          <mxGeometry relative="1" as="geometry" />
        </mxCell>
        <mxCell id="onmQwxyutbScnDZEIq1W-2" value="Initialise Parameters" style="rounded=0;whiteSpace=wrap;html=1;" vertex="1" parent="WIyWlLk6GJQsqaUBKTNV-1">
          <mxGeometry x="70" y="50" width="120" height="20" as="geometry" />
        </mxCell>
        <mxCell id="onmQwxyutbScnDZEIq1W-3" style="edgeStyle=none;curved=1;rounded=0;orthogonalLoop=1;jettySize=auto;html=1;entryX=0.5;entryY=1;entryDx=0;entryDy=0;fontSize=12;startSize=8;endSize=8;" edge="1" parent="WIyWlLk6GJQsqaUBKTNV-1" source="onmQwxyutbScnDZEIq1W-0" target="onmQwxyutbScnDZEIq1W-0">
          <mxGeometry relative="1" as="geometry" />
        </mxCell>
        <mxCell id="onmQwxyutbScnDZEIq1W-8" style="edgeStyle=none;curved=1;rounded=0;orthogonalLoop=1;jettySize=auto;html=1;exitX=0.5;exitY=1;exitDx=0;exitDy=0;entryX=0.5;entryY=0;entryDx=0;entryDy=0;fontSize=12;startSize=8;endSize=8;" edge="1" parent="WIyWlLk6GJQsqaUBKTNV-1" source="onmQwxyutbScnDZEIq1W-5" target="onmQwxyutbScnDZEIq1W-7">
          <mxGeometry relative="1" as="geometry" />
        </mxCell>
        <mxCell id="onmQwxyutbScnDZEIq1W-5" value="Calculate local Solidity and Local for each blade element" style="rounded=0;whiteSpace=wrap;html=1;" vertex="1" parent="WIyWlLk6GJQsqaUBKTNV-1">
          <mxGeometry x="70" y="90" width="120" height="50" as="geometry" />
        </mxCell>
        <mxCell id="onmQwxyutbScnDZEIq1W-31" style="edgeStyle=none;curved=1;rounded=0;orthogonalLoop=1;jettySize=auto;html=1;entryX=0.5;entryY=0;entryDx=0;entryDy=0;fontSize=12;startSize=8;endSize=8;" edge="1" parent="WIyWlLk6GJQsqaUBKTNV-1" source="onmQwxyutbScnDZEIq1W-7" target="onmQwxyutbScnDZEIq1W-11">
          <mxGeometry relative="1" as="geometry" />
        </mxCell>
        <mxCell id="onmQwxyutbScnDZEIq1W-7" value="Start loop for all blade sections" style="rounded=0;whiteSpace=wrap;html=1;" vertex="1" parent="WIyWlLk6GJQsqaUBKTNV-1">
          <mxGeometry x="70" y="160" width="120" height="40" as="geometry" />
        </mxCell>
        <mxCell id="onmQwxyutbScnDZEIq1W-33" style="edgeStyle=none;curved=1;rounded=0;orthogonalLoop=1;jettySize=auto;html=1;entryX=0.5;entryY=0;entryDx=0;entryDy=0;fontSize=12;startSize=8;endSize=8;" edge="1" parent="WIyWlLk6GJQsqaUBKTNV-1" source="onmQwxyutbScnDZEIq1W-9" target="onmQwxyutbScnDZEIq1W-22">
          <mxGeometry relative="1" as="geometry" />
        </mxCell>
        <mxCell id="onmQwxyutbScnDZEIq1W-9" value="IF i &amp;lt; n" style="rhombus;whiteSpace=wrap;html=1;" vertex="1" parent="WIyWlLk6GJQsqaUBKTNV-1">
          <mxGeometry x="70" y="420" width="120" height="40" as="geometry" />
        </mxCell>
        <mxCell id="onmQwxyutbScnDZEIq1W-30" style="edgeStyle=none;curved=1;rounded=0;orthogonalLoop=1;jettySize=auto;html=1;entryX=0.5;entryY=0;entryDx=0;entryDy=0;fontSize=12;startSize=8;endSize=8;" edge="1" parent="WIyWlLk6GJQsqaUBKTNV-1" source="onmQwxyutbScnDZEIq1W-11" target="onmQwxyutbScnDZEIq1W-28">
          <mxGeometry relative="1" as="geometry" />
        </mxCell>
        <mxCell id="onmQwxyutbScnDZEIq1W-11" value="Calculate Optimal reletive angle, Chord, Twist" style="rounded=0;whiteSpace=wrap;html=1;" vertex="1" parent="WIyWlLk6GJQsqaUBKTNV-1">
          <mxGeometry x="70" y="220" width="120" height="50" as="geometry" />
        </mxCell>
        <mxCell id="onmQwxyutbScnDZEIq1W-20" style="edgeStyle=none;curved=1;rounded=0;orthogonalLoop=1;jettySize=auto;html=1;entryX=0.5;entryY=0;entryDx=0;entryDy=0;fontSize=12;startSize=8;endSize=8;" edge="1" parent="WIyWlLk6GJQsqaUBKTNV-1" source="onmQwxyutbScnDZEIq1W-12" target="onmQwxyutbScnDZEIq1W-9">
          <mxGeometry relative="1" as="geometry" />
        </mxCell>
        <mxCell id="onmQwxyutbScnDZEIq1W-12" value="Output Chord, Twist, Relative Angle and Induction Factors." style="rounded=0;whiteSpace=wrap;html=1;" vertex="1" parent="WIyWlLk6GJQsqaUBKTNV-1">
          <mxGeometry x="70" y="350" width="120" height="50" as="geometry" />
        </mxCell>
        <mxCell id="onmQwxyutbScnDZEIq1W-18" value="" style="endArrow=classic;html=1;rounded=0;fontSize=12;startSize=8;endSize=8;curved=1;entryX=0;entryY=0.5;entryDx=0;entryDy=0;" edge="1" parent="WIyWlLk6GJQsqaUBKTNV-1" target="onmQwxyutbScnDZEIq1W-7">
          <mxGeometry width="50" height="50" relative="1" as="geometry">
            <mxPoint x="20" y="180" as="sourcePoint" />
            <mxPoint x="220" y="270" as="targetPoint" />
          </mxGeometry>
        </mxCell>
        <mxCell id="onmQwxyutbScnDZEIq1W-19" value="" style="endArrow=none;html=1;rounded=0;fontSize=12;startSize=8;endSize=8;curved=1;exitX=0;exitY=0.5;exitDx=0;exitDy=0;" edge="1" parent="WIyWlLk6GJQsqaUBKTNV-1" source="onmQwxyutbScnDZEIq1W-9">
          <mxGeometry width="50" height="50" relative="1" as="geometry">
            <mxPoint x="170" y="320" as="sourcePoint" />
            <mxPoint x="20" y="440" as="targetPoint" />
          </mxGeometry>
        </mxCell>
        <mxCell id="onmQwxyutbScnDZEIq1W-22" value="END" style="shape=hexagon;perimeter=hexagonPerimeter2;whiteSpace=wrap;html=1;fixedSize=1;" vertex="1" parent="WIyWlLk6GJQsqaUBKTNV-1">
          <mxGeometry x="70" y="480" width="120" height="30" as="geometry" />
        </mxCell>
        <mxCell id="onmQwxyutbScnDZEIq1W-23" value="i += 1" style="rounded=0;whiteSpace=wrap;html=1;" vertex="1" parent="WIyWlLk6GJQsqaUBKTNV-1">
          <mxGeometry y="260" width="40" height="20" as="geometry" />
        </mxCell>
        <mxCell id="onmQwxyutbScnDZEIq1W-25" value="" style="endArrow=none;html=1;rounded=0;fontSize=12;startSize=8;endSize=8;curved=1;exitX=0.5;exitY=1;exitDx=0;exitDy=0;" edge="1" parent="WIyWlLk6GJQsqaUBKTNV-1" source="onmQwxyutbScnDZEIq1W-23">
          <mxGeometry width="50" height="50" relative="1" as="geometry">
            <mxPoint x="150" y="340" as="sourcePoint" />
            <mxPoint x="20" y="440" as="targetPoint" />
          </mxGeometry>
        </mxCell>
        <mxCell id="onmQwxyutbScnDZEIq1W-26" style="edgeStyle=none;curved=1;rounded=0;orthogonalLoop=1;jettySize=auto;html=1;exitX=0.5;exitY=1;exitDx=0;exitDy=0;fontSize=12;startSize=8;endSize=8;" edge="1" parent="WIyWlLk6GJQsqaUBKTNV-1" source="onmQwxyutbScnDZEIq1W-22" target="onmQwxyutbScnDZEIq1W-22">
          <mxGeometry relative="1" as="geometry" />
        </mxCell>
        <mxCell id="onmQwxyutbScnDZEIq1W-27" style="edgeStyle=none;curved=1;rounded=0;orthogonalLoop=1;jettySize=auto;html=1;exitX=0.5;exitY=1;exitDx=0;exitDy=0;fontSize=12;startSize=8;endSize=8;" edge="1" parent="WIyWlLk6GJQsqaUBKTNV-1" source="onmQwxyutbScnDZEIq1W-22" target="onmQwxyutbScnDZEIq1W-22">
          <mxGeometry relative="1" as="geometry" />
        </mxCell>
        <mxCell id="onmQwxyutbScnDZEIq1W-29" style="edgeStyle=none;curved=1;rounded=0;orthogonalLoop=1;jettySize=auto;html=1;entryX=0.5;entryY=0;entryDx=0;entryDy=0;fontSize=12;startSize=8;endSize=8;" edge="1" parent="WIyWlLk6GJQsqaUBKTNV-1" source="onmQwxyutbScnDZEIq1W-28" target="onmQwxyutbScnDZEIq1W-12">
          <mxGeometry relative="1" as="geometry" />
        </mxCell>
        <mxCell id="onmQwxyutbScnDZEIq1W-28" value="Interpolate Cl and Cd using optimal AOA" style="rounded=0;whiteSpace=wrap;html=1;" vertex="1" parent="WIyWlLk6GJQsqaUBKTNV-1">
          <mxGeometry x="70" y="290" width="120" height="40" as="geometry" />
        </mxCell>
        <mxCell id="onmQwxyutbScnDZEIq1W-32" style="edgeStyle=none;curved=1;rounded=0;orthogonalLoop=1;jettySize=auto;html=1;exitX=0.5;exitY=0;exitDx=0;exitDy=0;fontSize=12;startSize=8;endSize=8;" edge="1" parent="WIyWlLk6GJQsqaUBKTNV-1" source="onmQwxyutbScnDZEIq1W-5" target="onmQwxyutbScnDZEIq1W-5">
          <mxGeometry relative="1" as="geometry" />
        </mxCell>
        <mxCell id="onmQwxyutbScnDZEIq1W-34" value="" style="endArrow=none;html=1;rounded=0;fontSize=12;startSize=8;endSize=8;curved=1;exitX=0.5;exitY=0;exitDx=0;exitDy=0;" edge="1" parent="WIyWlLk6GJQsqaUBKTNV-1" source="onmQwxyutbScnDZEIq1W-23">
          <mxGeometry width="50" height="50" relative="1" as="geometry">
            <mxPoint x="40" y="200" as="sourcePoint" />
            <mxPoint x="20" y="180" as="targetPoint" />
          </mxGeometry>
        </mxCell>
      </root>
    </mxGraphModel>
  </diagram>
</mxfile>
